PathFileType	3	(X/Y/Z)	F:\ViconData\AntennenMessung\Messung1\Session1\ID08.trc
DataRate	CameraRate	NumFrames	NumMarkers	Units	OrigDataRate	OrigDataStartFrame	OrigNumFrames
120.0	120.0	4	70	mm	120.0	156	1240	
Frame#	Time	Ashort			Along			Atop			A4			Bshort			Blong			Btop			B4			Cshort			Clong			Ctop			C4			Dshort			Dlong			Dtop			D4			Eshort			Elong			Etop			E4			Fshort			Flong			Ftop			F4			Gshort			Glong			Gtop			G4			Hshort			Hlong			Htop			H4			I1			I2			I3			I4			I5			WandAshort			WandAlong			WandAtop			WandA4			WandA15			WandBshort			WandB4			WandB5			WandBtop			WandBlong			WandCshort			WandClong			WandCtop			WandC4			WandC5			Acenter			Aantenna			Bcenter			Bantenna			Ccenter			Cantenna			Dcenter			Dantenna			Ecenter			Eantenna			Fcenter			Fantenna			Gcenter			Gantenna			Hcenter			Hantenna			Icenter			Iantenna			
		X1	Y1	Z1	X2	Y2	Z2	X3	Y3	Z3	X4	Y4	Z4	X5	Y5	Z5	X6	Y6	Z6	X7	Y7	Z7	X8	Y8	Z8	X9	Y9	Z9	X10	Y10	Z10	X11	Y11	Z11	X12	Y12	Z12	X13	Y13	Z13	X14	Y14	Z14	X15	Y15	Z15	X16	Y16	Z16	X17	Y17	Z17	X18	Y18	Z18	X19	Y19	Z19	X20	Y20	Z20	X21	Y21	Z21	X22	Y22	Z22	X23	Y23	Z23	X24	Y24	Z24	X25	Y25	Z25	X26	Y26	Z26	X27	Y27	Z27	X28	Y28	Z28	X29	Y29	Z29	X30	Y30	Z30	X31	Y31	Z31	X32	Y32	Z32	X33	Y33	Z33	X34	Y34	Z34	X35	Y35	Z35	X36	Y36	Z36	X37	Y37	Z37	X38	Y38	Z38	X39	Y39	Z39	X40	Y40	Z40	X41	Y41	Z41	X42	Y42	Z42	X43	Y43	Z43	X44	Y44	Z44	X45	Y45	Z45	X46	Y46	Z46	X47	Y47	Z47	X48	Y48	Z48	X49	Y49	Z49	X50	Y50	Z50	X51	Y51	Z51	X52	Y52	Z52	X53	Y53	Z53	X54	Y54	Z54	X55	Y55	Z55	X56	Y56	Z56	X57	Y57	Z57	X58	Y58	Z58	X59	Y59	Z59	X60	Y60	Z60	X61	Y61	Z61	X62	Y62	Z62	X63	Y63	Z63	X64	Y64	Z64	X65	Y65	Z65	X66	Y66	Z66	X67	Y67	Z67	X68	Y68	Z68	X69	Y69	Z69	X70	Y70	Z70	
156	1.2916667	-1038.1715	214.51274	-1644.0627	-1109.3451	203.95459	-1599.4283	-1063.6459	173.06601	-1625.8552	-1054.1324	262.20505	-1634.8887	-1352.7042	235.17491	1004.0016	-1281.3864	227.33627	1052.3779	-1322.7697	193.97716	1020.8939	-1284.4033	287.87552	1052.8406	814.1496	187.57404	1209.5385	892.32568	178.58591	1179.0734	844.52838	145.40298	1198.3127	861.30017	292.44467	1168.1909	1115.9294	209.92992	-1401.7693	1056.3702	194.05272	-1460.1349	1095.2399	162.29875	-1423.8441	1069.8652	238.85423	-1425.8661	-1204.6731	1686.1165	-1562.9591	-1129.1322	1688.2819	-1605.9948	-1173.0591	1724.3302	-1581.9514	-1134.0095	1581.0712	-1603.7358	-1239.5459	1699.0403	1119.4	-1309.4214	1698.897	1071.978	-1270.4146	1736.238	1096.866	-1245.5341	1592.6481	1110.6481	988.98816	1664.3026	1162.2983	957.32471	1700.5571	1183.7832	922.08234	1662.2426	1214.8817	939.83881	1659.4426	1159.9171	999.3349	1668.4832	-1579.3123	1059.1143	1670.2073	-1518.5798	1025.1793	1708.0299	-1551.0514	1059.4667	1672.1484	-1585.3213	393.12613	1170.3143	-32.762325	395.60318	1172.3862	-116.88138	396.31583	1208.4315	-69.400002	427.03104	1169.434	-69.12542	346.5589	1174.6342	-70.991241																																														-1068.583	210.00137	-1624.991	-1073.7488	248.64717	-1624.0868	-1321.512	231.74652	1025.1598	-1320.2224	270.47891	1029.5347	848.1402	183.66602	1196.2922	851.80029	222.43988	1194.245	1088.8447	202.7097	-1428.3112	1082.7848	241.00278	-1432.5439	-1171.8301	1687.0579	-1581.6696	-1170.5449	1648.0801	-1581.375	-1271.0985	1698.9756	1097.9863	-1271.814	1659.9998	1099.1582	952.82373	1705.7106	1186.837	972.74768	1733.8827	1168.6611	1026.7313	1669.2732	-1551.4789	1028.292	1630.3069	-1551.9086	394.23373	1171.2407	-70.377396	392.05457	1132.3152	-71.400383
157	1.3	-1038.1692	214.5136	-1644.0674	-1109.3513	203.99472	-1599.4397	-1063.6407	173.06841	-1625.8552	-1054.0856	262.12695	-1634.9167	-1352.8231	235.11664	1004.0159	-1281.3243	227.34293	1052.4049	-1322.7822	194.01881	1020.9131	-1284.3608	287.89087	1052.8132	814.14038	187.68996	1209.5286	892.35632	178.62758	1179.0322	844.59894	145.40022	1198.2812	861.31812	292.23239	1168.0812	1115.9358	209.93423	-1401.7927	1056.433	194.0152	-1460.1144	1095.3215	162.39397	-1423.8505	1069.8446	238.8438	-1425.8611	-1204.6787	1686.1121	-1562.9545	-1129.1201	1688.2651	-1605.9622	-1173.066	1724.3357	-1581.954	-1134.0161	1581.0481	-1603.7112	-1239.5961	1699.115	1119.4231	-1309.4139	1698.8899	1071.9642	-1270.4487	1736.2937	1096.882	-1245.6271	1592.8667	1110.7115	988.98865	1664.3019	1162.291	957.40936	1700.4916	1183.7952	922.15802	1662.2826	1214.8768	939.82037	1659.4011	1159.8922	999.34509	1668.4476	-1579.2808	1059.1125	1670.2102	-1518.5759	1025.1885	1708.0363	-1551.0596	1059.4677	1672.1497	-1585.3196	392.99423	1170.2168	-32.892723	395.60596	1172.3778	-116.89046	396.33029	1208.4342	-69.411682	427.0365	1169.4432	-69.125069	346.55777	1174.6384	-71.000816																																														-1068.5699	210.02113	-1625.0076	-1073.7253	248.66872	-1624.1211	-1321.5649	231.71808	1025.1708	-1320.3142	270.45178	1029.5453	848.24213	183.73882	1196.2323	851.92627	222.50906	1194.1603	1088.8956	202.70007	-1428.296	1082.7916	240.98726	-1432.5189	-1171.8311	1687.048	-1581.6511	-1170.54	1648.0706	-1581.3345	-1271.0957	1699.0133	1098.011	-1271.7725	1660.0371	1099.1914	952.86157	1705.7032	1186.8921	972.78784	1733.8829	1168.7302	1026.7374	1669.2554	-1551.4586	1028.2939	1630.2885	-1551.8596	394.16159	1171.1827	-70.437477	391.89575	1132.2633	-71.509201
158	1.3083333	-1038.2134	214.52664	-1644.1058	-1109.3534	203.95612	-1599.4248	-1063.598	173.02708	-1625.8776	-1054.1169	262.16055	-1634.8827	-1352.7684	235.09485	1003.978	-1281.3455	227.34981	1052.3882	-1322.9042	193.91493	1020.8741	-1284.2983	287.90942	1052.713	814.00195	187.72981	1209.4829	892.28973	178.46085	1179.0935	844.5481	145.33311	1198.3512	861.33258	292.40466	1168.1464	1115.9351	209.92578	-1401.7614	1056.39	193.97769	-1460.0619	1095.2219	162.31474	-1423.8239	1069.8461	238.85925	-1425.8666	-1204.6687	1686.1003	-1562.9731	-1129.1274	1688.2604	-1605.9852	-1173.0551	1724.3301	-1581.9452	-1133.7512	1581.0426	-1603.5828	-1239.5537	1699.035	1119.3943	-1309.4534	1698.9436	1071.9832	-1270.4219	1736.2521	1096.8694	-1245.6073	1592.85	1110.684	988.94672	1664.2833	1162.2574	957.3031	1700.5209	1183.7957	922.21881	1662.2192	1214.8673	939.86066	1659.4432	1159.8917	999.35071	1668.4874	-1579.3297	1059.1177	1670.21	-1518.5792	1025.1869	1708.0386	-1551.061	1059.475	1672.1569	-1585.3196	392.98438	1170.2393	-32.850071	395.60858	1172.3802	-116.88398	396.34021	1208.4175	-69.425171	427.04184	1169.4515	-69.123268	346.54028	1174.6401	-71.012016																																														-1068.5685	210.01624	-1625.0405	-1073.7611	248.6591	-1624.1663	-1321.6489	231.72028	1025.0706	-1320.3627	270.46112	1029.3708	848.24841	183.67516	1196.1892	851.98901	222.43379	1194.0038	1088.8137	202.66182	-1428.3159	1082.7329	240.94829	-1432.5785	-1171.8319	1687.0393	-1581.6698	-1170.5536	1648.0613	-1581.3821	-1271.126	1698.9935	1097.9794	-1271.8628	1660.0178	1099.1409	952.84442	1705.6266	1186.8304	972.72852	1733.8093	1168.6272	1026.74	1669.2767	-1551.4897	1028.3013	1630.3104	-1551.9208	394.15823	1171.1969	-70.441605	391.87677	1132.2782	-71.504417
159	1.3166667	-1038.1671	214.49487	-1644.0823	-1109.3577	203.98265	-1599.4602	-1063.6082	173.05196	-1625.8856	-1054.0964	262.18558	-1634.8748	-1352.729	235.15868	1003.9766	-1281.3417	227.41785	1052.3455	-1322.7948	193.91499	1020.9396	-1284.4929	287.81625	1052.9065	814.04791	187.71342	1209.4889	892.80701	179.24796	1178.658	844.56799	145.36099	1198.2855	861.38098	292.50568	1168.2866	1115.9476	209.93742	-1401.782	1056.4092	193.98009	-1460.0582	1095.2783	162.35008	-1423.873	1069.8472	238.85582	-1425.8772	-1204.6769	1686.1031	-1562.9496	-1129.1664	1688.391	-1606.4988	-1173.0701	1724.3375	-1581.9508	-1133.7627	1581.0416	-1603.5676	-1239.5577	1699.0592	1119.3988	-1309.4277	1698.9103	1071.9731	-1270.4144	1736.2502	1096.8678	-1245.5847	1592.781	1110.6783	988.91815	1664.238	1162.2838	957.39001	1700.5061	1183.7715	922.19623	1662.3052	1214.9397	939.87482	1659.4347	1159.8628	999.33374	1668.4625	-1579.3127	1059.137	1670.2285	-1518.576	1025.2002	1708.0435	-1551.0612	1059.4762	1672.1536	-1585.3177	393.00952	1170.2178	-32.898888	395.61151	1172.3762	-116.88739	396.33569	1208.4406	-69.428894	427.04675	1169.4227	-69.13195	346.54413	1174.6504	-71.007568																																														-1068.5389	210.01007	-1625.0453	-1073.6951	248.65773	-1624.1667	-1321.5223	231.77481	1025.1207	-1320.2203	270.51752	1029.3994	847.92346	184.07228	1196.2279	851.28656	222.87224	1194.1655	1088.8295	202.66931	-1428.3251	1082.7064	240.95297	-1432.5524	-1171.8889	1687.0964	-1581.8593	-1170.6527	1648.1161	-1581.7635	-1271.0972	1698.9919	1097.9907	-1271.8114	1660.0162	1099.1655	952.90881	1705.6608	1186.8256	972.83508	1733.7897	1168.5852	1026.7544	1669.2722	-1551.464	1028.3164	1630.3055	-1551.869	394.17297	1171.1829	-70.453438	391.91376	1132.2631	-71.523697
